<svg width="25" height="22" viewBox="0 0 25 22" fill="none" xmlns="http://www.w3.org/2000/svg">
<circle cx="10.746" cy="10.746" r="10.046" stroke="url(#paint0_linear)" stroke-width="1.4"/>
<path d="M20.5843 2.12857L20.5842 2.12861L10.0015 12.7114L6.36906 9.07894C6.36905 9.07892 6.36903 9.07891 6.36902 9.0789C5.61041 8.32025 4.38068 8.3205 3.62221 9.07883L3.62217 9.07887C2.86355 9.83741 2.8636 11.0672 3.62214 11.8258L4.32815 11.1197L3.62214 11.8258L8.62798 16.8315C8.62802 16.8316 8.62805 16.8316 8.62809 16.8316C9.38677 17.5904 10.617 17.5896 11.375 16.8316L23.3311 4.87553C23.3311 4.87551 23.3311 4.8755 23.3311 4.87549C24.0897 4.1169 24.0895 2.88711 23.3311 2.12864C22.5726 1.37 21.3428 1.37011 20.5843 2.12857Z" fill="#51509C" stroke="white" stroke-width="2"/>
<defs>
<linearGradient id="paint0_linear" x1="2.46957" y1="19.7565" x2="18.9556" y2="3.67098" gradientUnits="userSpaceOnUse">
<stop stop-color="#51509C" stop-opacity="0.89"/>
<stop offset="1" stop-color="#FF6CB3" stop-opacity="0.9"/>
</linearGradient>
</defs>
</svg>
